<?xml version="1.0" encoding="UTF-8"?>
<svg id="_圖層_2" data-name="圖層 2" xmlns="http://www.w3.org/2000/svg" viewBox="0 0 87.4 103.79">
  <defs>
    <style>
      .cls-1 {
        fill: #003979;
      }

      .cls-2 {
        fill: #fff;
      }
    </style>
  </defs>
  <g id="_圖層_1-2" data-name="圖層 1">
    <g>
      <path class="cls-2" d="M84.62,35.95c0,5.25.28,10.52-.06,15.74-.56,8.53-3.82,16.19-8.66,23.15-7.81,11.24-18.24,19.46-30.22,25.85-1.26.67-2.56.73-3.84.05-12.72-6.8-23.73-15.57-31.6-27.85-5.06-7.9-7.72-16.54-7.68-25.97.04-8.26,0-16.53,0-24.79,0-2.6.76-3.65,3.19-4.52,8.19-2.93,15.49-7.25,21.44-13.67.87-.94,1.92-1.39,3.21-1.39,8.87.01,17.74.01,26.61,0,1.29,0,2.33.45,3.2,1.39,5.9,6.34,13.11,10.65,21.21,13.57,2.76.99,3.42,1.95,3.42,4.88,0,4.52,0,9.04,0,13.56h-.22Z"/>
      <path class="cls-1" d="M43.69,103.79c-1.04,0-2.08-.26-3.05-.78-14.46-7.73-25.11-17.12-32.55-28.73C2.68,65.84-.04,56.64,0,46.91c.02-5.33.02-10.67.01-16.01v-8.78c0-3.68,1.42-5.68,4.88-6.92,8.43-3.01,15.11-7.27,20.42-13,1.36-1.46,3.07-2.21,5.08-2.21h0c8.87,0,17.73,0,26.6,0h0c2.01,0,3.71.74,5.08,2.21,5.29,5.69,11.9,9.91,20.2,12.9,3.77,1.36,5.11,3.26,5.12,7.28v13.56c0,.37-.08.72-.22,1.03,0,1.27.03,2.54.05,3.81.06,3.62.12,7.36-.12,11.07-.56,8.43-3.54,16.43-9.12,24.45-7.48,10.75-17.65,19.46-31.11,26.65-1.04.55-2.12.83-3.19.83ZM30.39,5.12c-.58,0-.94.15-1.32.57-5.88,6.35-13.23,11.04-22.45,14.34-1.42.51-1.49.61-1.49,2.11v8.77c0,5.34.01,10.69,0,16.03-.04,8.72,2.41,16.99,7.28,24.58,6.95,10.85,16.98,19.67,30.65,26.97.4.22.79.28,1.43-.05,12.73-6.79,22.32-14.99,29.32-25.05,5.03-7.24,7.72-14.39,8.21-21.86.23-3.5.17-7.13.11-10.64-.03-1.64-.05-3.29-.05-4.93,0-.37.08-.72.22-1.04v-12.52q0-1.85-1.73-2.47c-9.08-3.27-16.35-7.93-22.21-14.23-.39-.42-.75-.58-1.33-.58h0c-8.87,0-17.74,0-26.61,0h0Z"/>
      <path class="cls-1" d="M41.78,25.27h3.67c.5.18,1.03.14,1.55.23.65.11,1.04.46,1.2,1.09.27,1.02.57,2.03.83,3.04.15.56.47.94,1.03,1.12.64.21,1.26.46,1.86.77.52.27,1.02.24,1.52-.05.9-.52,1.81-1.01,2.7-1.54.62-.36,1.17-.32,1.73.11,1.71,1.31,3.21,2.82,4.53,4.52.43.56.49,1.12.13,1.74-.52.9-1.01,1.81-1.54,2.7-.3.51-.33.99-.07,1.52.3.6.56,1.22.77,1.86.18.58.57.9,1.15,1.06.99.26,1.97.55,2.95.81.69.18,1.06.6,1.16,1.3.28,2.15.29,4.29,0,6.44-.09.68-.45,1.1-1.12,1.28-.99.26-1.96.56-2.95.81-.6.15-1,.48-1.19,1.08-.2.64-.47,1.26-.77,1.86-.25.51-.23.99.05,1.48.52.9,1.01,1.81,1.54,2.7.37.63.32,1.2-.12,1.77-1.31,1.69-2.8,3.19-4.49,4.49-.58.45-1.14.5-1.77.12-.89-.53-1.8-1.02-2.7-1.54-.49-.28-.97-.31-1.48-.05-.6.3-1.22.56-1.86.77-.58.18-.91.56-1.07,1.15-.26,1-.56,2-.82,3-.17.65-.56,1.02-1.23,1.12-2.18.3-4.35.3-6.53,0-.69-.09-1.08-.48-1.25-1.15-.26-1-.55-2-.82-3-.15-.54-.46-.9-1-1.09-.64-.24-1.28-.5-1.9-.78-.53-.25-1.01-.23-1.52.07-.89.52-1.81,1.01-2.7,1.54-.62.36-1.17.31-1.74-.13-1.68-1.29-3.17-2.77-4.46-4.46-.54-.7-.57-1.1-.13-1.88.5-.88.98-1.75,1.49-2.62.3-.51.31-1,.05-1.52-.29-.59-.55-1.19-.75-1.81-.19-.59-.58-.93-1.18-1.09-.94-.24-1.88-.51-2.82-.78-.95-.27-1.2-.59-1.31-1.57-.04-.35,0-.72-.18-1.05v-3.85c.19-.42.15-.88.22-1.32.1-.68.47-1.09,1.14-1.26,1-.26,1.99-.56,3-.82.56-.15.94-.47,1.12-1.03.21-.64.47-1.26.77-1.85.27-.54.24-1.04-.07-1.56-.53-.89-1.02-1.81-1.53-2.7-.35-.6-.3-1.14.12-1.69,1.32-1.72,2.83-3.23,4.55-4.55.55-.42,1.1-.47,1.69-.12.91.53,1.83,1.03,2.74,1.56.49.28.96.31,1.48.06.6-.29,1.21-.57,1.85-.77.59-.19.93-.58,1.09-1.18.23-.9.49-1.79.73-2.69.3-1.09.58-1.32,1.7-1.45.32-.04.66.02.95-.17ZM43.69,56.88c4.51-.01,8.14-3.65,8.14-8.15,0-4.45-3.67-8.11-8.13-8.1-4.48,0-8.13,3.66-8.12,8.14,0,4.46,3.67,8.13,8.12,8.12Z"/>
    </g>
  </g>
</svg>