<?xml version="1.0" encoding="UTF-8"?>
<svg id="_圖層_2" data-name="圖層 2" xmlns="http://www.w3.org/2000/svg" viewBox="0 0 109.17 87.64">
  <defs>
    <style>
      .cls-1 {
        fill: #003979;
      }

      .cls-2 {
        fill: #fff;
      }

      .cls-3 {
        fill: #2a3363;
      }
    </style>
  </defs>
  <g id="_圖層_1-2" data-name="圖層 1">
    <g>
      <polygon class="cls-3" points="2.25 54.56 46.07 42.54 85.34 54.56 43.79 69.09 2.25 54.56"/>
      <path class="cls-1" d="M43.79,71.34c-.25,0-.5-.04-.74-.13L1.51,56.68c-.93-.33-1.54-1.22-1.51-2.2.04-.98.71-1.83,1.66-2.09l43.82-12.01c.41-.11.84-.11,1.25.02l39.27,12.01c.93.28,1.57,1.14,1.59,2.11.02.97-.59,1.85-1.51,2.17l-41.55,14.54c-.24.08-.49.13-.74.13ZM9.81,54.82l33.98,11.89,34.32-12.01-32.08-9.81-36.23,9.93Z"/>
      <polygon class="cls-2" points="2.25 54.56 2.25 69.47 44.54 85.39 85.82 69.97 85.34 54.56 43.79 69.09 2.25 54.56"/>
      <path class="cls-1" d="M44.54,87.64c-.27,0-.54-.05-.79-.14L1.46,71.58C.58,71.24,0,70.41,0,69.47v-14.91c0-.73.35-1.41.95-1.84.59-.42,1.36-.53,2.04-.29l40.8,14.28,40.8-14.28c.68-.24,1.42-.14,2.02.27.59.4.95,1.07.98,1.78l.48,15.41c.03.96-.56,1.84-1.46,2.18l-41.28,15.42c-.25.1-.52.14-.79.14ZM4.5,67.91l40.05,15.07,38.98-14.56-.34-10.73-38.65,13.52c-.48.17-1.01.17-1.49,0L4.5,57.73v10.18Z"/>
      <polygon class="cls-3" points="2.25 34.41 46.07 22.4 85.34 34.41 43.79 48.95 2.25 34.41"/>
      <path class="cls-1" d="M43.79,51.2c-.25,0-.5-.04-.74-.13L1.51,36.53c-.93-.33-1.54-1.22-1.51-2.2.04-.98.71-1.83,1.66-2.09l43.82-12.01c.41-.11.84-.11,1.25.02l39.27,12.01c.93.28,1.57,1.14,1.59,2.11.02.97-.59,1.85-1.51,2.17l-41.55,14.54c-.24.08-.49.13-.74.13ZM9.81,34.67l33.98,11.89,34.32-12.01-32.08-9.81-36.23,9.93Z"/>
      <polygon class="cls-2" points="2.25 34.41 2.25 49.32 44.54 65.24 85.82 49.82 85.34 34.41 43.79 48.95 2.25 34.41"/>
      <path class="cls-1" d="M44.54,67.49c-.27,0-.54-.05-.79-.14L1.46,51.43C.58,51.1,0,50.26,0,49.32v-14.91c0-.73.35-1.41.95-1.84.59-.42,1.36-.53,2.04-.29l40.8,14.28,40.8-14.28c.68-.24,1.42-.14,2.02.27.59.4.95,1.07.98,1.78l.48,15.41c.03.96-.56,1.84-1.46,2.18l-41.28,15.42c-.25.1-.52.14-.79.14ZM4.5,47.76l40.05,15.07,38.98-14.56-.34-10.73-38.65,13.52c-.48.17-1.01.17-1.49,0L4.5,37.58v10.18Z"/>
      <polygon class="cls-2" points="2.25 14.26 46.07 2.25 85.34 14.26 43.79 28.8 2.25 14.26"/>
      <path class="cls-1" d="M43.79,31.05c-.25,0-.5-.04-.74-.13L1.51,16.39C.58,16.06-.03,15.17,0,14.19c.04-.98.71-1.83,1.66-2.09L45.48.08c.41-.11.84-.11,1.25.02l39.27,12.01c.93.28,1.57,1.14,1.59,2.11.02.97-.59,1.85-1.51,2.17l-41.55,14.53c-.24.08-.49.13-.74.13ZM9.81,14.52l33.98,11.89,34.32-12.01L46.04,4.59,9.81,14.52Z"/>
      <polygon class="cls-2" points="2.25 14.26 2.25 29.18 44.54 45.09 85.82 29.67 85.34 14.26 43.79 28.8 2.25 14.26"/>
      <path class="cls-1" d="M44.54,47.34c-.27,0-.54-.05-.79-.14L1.46,31.28C.58,30.95,0,30.11,0,29.18v-14.91c0-.73.35-1.41.95-1.84.59-.42,1.36-.53,2.04-.29l40.8,14.27,40.8-14.27c.68-.24,1.42-.14,2.02.27.59.4.95,1.07.98,1.78l.48,15.41c.03.96-.56,1.84-1.46,2.18l-41.28,15.42c-.25.1-.52.14-.79.14ZM4.5,27.62l40.05,15.07,38.98-14.56-.34-10.73-38.65,13.52c-.48.17-1.01.17-1.49,0L4.5,17.43v10.18Z"/>
      <path class="cls-2" d="M100.32,81.83h-22.75c-4.88,0-8.85-3.97-8.85-8.85v-17.68c0-3.55,2.29-6.58,5.47-7.68v-3.97c0-5.73,4.66-10.39,10.39-10.39h7.64c5.73,0,10.39,4.66,10.39,10.39v3.67c3.74.73,6.56,4.03,6.56,7.97v17.68c0,4.88-3.97,8.85-8.85,8.85ZM76.83,54.76c-.3,0-.54.24-.54.54v17.68c0,.7.57,1.26,1.26,1.26h22.75c.7,0,1.26-.57,1.26-1.26v-17.68c0-.3-.24-.54-.54-.54h-24.21ZM85.82,47.24h5.14v-2.59h-5.14v2.59Z"/>
      <path class="cls-1" d="M102.13,50.38h-2.44v-7.97c0-3.97-3.22-7.19-7.19-7.19h-8.33c-3.97,0-7.19,3.22-7.19,7.19v7.97h-1.25c-2.61,0-4.72,2.11-4.72,4.72v19.27c0,3.04,2.47,5.51,5.51,5.51h24.8c3.04,0,5.51-2.47,5.51-5.51v-19.27c0-2.61-2.11-4.72-4.72-4.72ZM81.41,42.68c0-1.83,1.49-3.32,3.32-3.32h7.23c1.83,0,3.32,1.49,3.32,3.32v7.77h-13.87v-7.77Z"/>
      <polygon class="cls-2" points="86.11 73.44 78.83 67.54 81.54 64.21 85.83 67.69 96.04 57.67 99.05 60.74 86.11 73.44"/>
    </g>
  </g>
</svg>