<?xml version="1.0" encoding="UTF-8"?>
<svg id="_圖層_2" data-name="圖層 2" xmlns="http://www.w3.org/2000/svg" viewBox="0 0 1925.68 654.2">
  <defs>
    <style>
      .cls-1 {
        fill: #79bd28;
        fill-rule: evenodd;
      }

      .cls-2 {
        fill: #002f7b;
      }
    </style>
  </defs>
  <g id="_圖層_1-2" data-name="圖層 1">
    <g>
      <g>
        <path class="cls-2" d="M380.38,461.74c-5.55,4-9.68,8.66-12.5,14.01-2.73,5.41-4.13,11.38-4.13,18.05v124.58c0,6.77,1.4,12.84,4.13,18.28,2.82,5.5,6.96,10.2,12.5,14.2h-64.73c5.55-4,9.73-8.7,12.46-14.2,2.81-5.45,4.18-11.51,4.18-18.28v-124.58c0-6.68-1.37-12.64-4.18-18.05-2.73-5.35-6.91-10.01-12.46-14.01h64.73Z"/>
        <path class="cls-2" d="M438.95,509.37v18c7.9-6.68,16.36-11.66,25.48-14.95,9.07-3.24,18.99-4.89,29.76-4.89,17.81,0,31.26,4.09,40.28,12.22,8.94,8.17,13.45,20.31,13.45,36.49v61.11c0,7.01,1.22,13.4,3.57,19.13,2.4,5.78,5.74,10.58,10.06,14.39h-56.55c4.42-3.81,7.8-8.61,10.15-14.39,2.31-5.73,3.48-12.12,3.48-19.13v-53.4c0-13.12-2.44-22.38-7.29-27.73-4.89-5.36-13.12-8.04-24.63-8.04-13.35,0-23.79,3.43-31.51,10.34-7.61,6.96-11.46,16.41-11.46,28.35v50.49c0,7.01,1.22,13.4,3.52,19.13,2.31,5.78,5.69,10.58,10.11,14.39h-56.51c4.33-3.9,7.62-8.74,10.06-14.58,2.36-5.83,3.58-12.12,3.58-18.94v-69.48c0-5.35-1.27-10.38-3.76-15.13-2.49-4.76-6.2-9.31-11.23-13.77l39.44-9.59Z"/>
        <path class="cls-2" d="M697.19,504.19c0-7.01-1.18-13.39-3.52-19.18-2.3-5.73-5.64-10.53-9.97-14.38l42.92-10.91v162.28c0,5.22,1.27,10.2,3.76,14.91,2.5,4.7,6.35,9.35,11.57,13.96h-25.62c-.38,0-.8.05-1.32.14-.57.09-.95.14-1.04.14-4.09,0-7.33-1.36-9.78-3.99-2.45-2.68-4.32-6.96-5.68-12.79-4.18,6.12-10.58,10.96-19.04,14.53-8.46,3.53-18.15,5.31-28.87,5.31-22.93,0-40.7-6.16-53.3-18.42-12.6-12.32-18.9-29.62-18.9-52s6.73-41.88,20.22-55.61c13.44-13.77,31.49-20.64,53.96-20.64,8.23,0,16.09,1.04,23.56,3.1,7.48,2.12,14.52,5.22,21.06,9.4v-15.84ZM697.19,569.96c0-14.2-3.57-25.1-10.67-32.62-7.1-7.57-17.2-11.33-30.46-11.33-14.48,0-25.86,5.22-34.09,15.56-8.22,10.39-12.31,24.82-12.31,43.3,0,15.94,3.81,28.2,11.51,36.8,7.63,8.56,18.53,12.83,32.72,12.83,12.98,0,23.46-3.99,31.41-11.98,7.9-7.99,11.89-18.57,11.89-31.69v-20.87Z"/>
        <path class="cls-2" d="M903.99,617.35c0,6.91,1.22,13.25,3.67,19.09,2.45,5.78,5.83,10.62,10.29,14.43h-28.63c-3.01-1.08-5.36-2.73-7.15-4.98-1.78-2.26-3.01-5.22-3.66-8.84-8.09,5.55-16.74,9.82-26.05,12.74-9.22,2.96-18.76,4.41-28.49,4.41-17.67,0-30.93-4.13-39.77-12.31-8.88-8.22-13.35-20.4-13.35-36.52v-61.12c0-7.01-1.17-13.39-3.58-19.18-2.35-5.73-5.73-10.53-10.06-14.34h42.97v87.02c0,13.07,2.4,22.28,7.29,27.65,4.89,5.36,13.12,8.04,24.64,8.04,13.3,0,23.79-3.48,31.45-10.39,7.61-6.91,11.47-16.37,11.47-28.35v-50.45c0-6.81-1.22-13.16-3.58-18.94-2.4-5.84-5.83-10.68-10.43-14.58h42.97v106.62Z"/>
        <path class="cls-2" d="M943.95,653.92v-48.55c6.63,9.49,14.76,16.69,24.35,21.52,9.59,4.89,20.31,7.34,32.16,7.34,10.43,0,18.82-2.07,25.11-6.21,6.22-4.09,9.36-9.59,9.36-16.41,0-10.3-11.19-18.05-33.62-23.32-2.63-.61-4.71-1.08-6.12-1.46-18.53-4.51-31.69-9.82-39.4-15.97-7.71-6.12-11.56-14.06-11.56-23.79,0-11.75,5.27-21.2,15.79-28.44,10.53-7.24,24.35-10.86,41.47-10.86,7.2,0,15.14.61,23.8,1.74,8.65,1.17,13.81,1.74,15.46,1.74,2.58,0,4.93-.24,7.1-.75,2.16-.47,4.04-1.22,5.73-2.16v42.73c-6.86-8.65-14.29-15.04-22.24-19.27-7.95-4.19-16.59-6.3-26-6.3s-16.75,1.89-22.76,5.65c-6.02,3.76-9.02,8.41-9.02,13.91,0,4.61,2.02,8.32,6.11,11.05,4.14,2.78,13.87,5.93,29.3,9.45,21.87,5.27,36.58,11,44.19,17.25,7.58,6.25,11.37,14.86,11.37,25.85,0,13.35-6.07,24.26-18.27,32.77-12.23,8.51-28.03,12.78-47.45,12.78-6.35,0-13.97-.8-22.95-2.35-8.97-1.55-14.76-2.3-17.29-2.3s-5.03.33-7.48,1.04c-2.45.7-4.85,1.83-7.14,3.33Z"/>
        <path class="cls-2" d="M1117.15,480.78c0-1.5-.27-2.96-.85-4.32-.58-1.41-1.27-2.58-2.17-3.53h32.3c-.87.95-1.6,2.07-2.12,3.39-.45,1.27-.75,2.78-.75,4.46v33.24h24.36c6.21,0,11.93-.38,17.3-1.18,5.27-.8,10.16-2.02,14.63-3.71l-10.81,28.07c-2.8-1.13-5.47-2.03-7.99-2.68-2.6-.61-4.77-.89-6.64-.89h-30.85v75.02c0,8.28,2.27,14.44,6.59,18.48,4.42,4.04,11.11,6.02,20.07,6.02,5.89,0,11.71-.99,17.55-2.96,5.82-2.03,11.01-4.84,15.55-8.46v1.6c0,9.31-4.12,16.78-12.46,22.42-8.31,5.65-19.42,8.46-33.27,8.46-14.68,0-25.48-3.24-32.65-9.73-7.04-6.49-10.61-16.41-10.61-29.81v-81.04h-4.72c-5.62,0-10.98.42-16.07,1.27-5.12.8-9.86,2.02-14.33,3.62l10.28-27.79c2.05,1.13,4.04,1.98,6.12,2.5,2.07.56,4.14.8,6.21.8,5.79,0,9.79-1.27,11.98-3.85,2.22-2.55,3.35-7.34,3.35-14.34v-15.05Z"/>
        <path class="cls-2" d="M1245.97,509.37v18c4.97-6.68,10.61-11.66,17-14.95,6.42-3.24,13.68-4.89,21.92-4.89,4.42,0,9.68.61,15.7,1.84,6.02,1.27,9.88,1.87,11.38,1.87.95,0,1.87-.09,3-.32,1.12-.24,2.92-.75,5.37-1.55v40.34c-5.27-7.19-10.71-12.42-16.45-15.71-5.69-3.29-12.13-4.94-19.37-4.94-10.63,0-18.9,3.76-24.84,11.19-5.97,7.48-8.91,17.92-8.91,31.31v45.79c0,7.01,1.3,13.4,3.89,19.13,2.57,5.78,6.44,10.58,11.43,14.39h-58.26c4.32-3.9,7.66-8.74,10.06-14.58,2.4-5.83,3.57-12.12,3.57-18.94v-69.48c0-5.27-1.27-10.25-3.79-14.99-2.55-4.75-6.44-9.4-11.66-13.91l39.96-9.59Z"/>
        <path class="cls-2" d="M1373.34,617.35c0,7.01,1.25,13.4,3.55,19.13,2.3,5.78,5.69,10.58,10.11,14.39h-56.51c4.32-3.9,7.61-8.74,10.06-14.58,2.35-5.83,3.57-12.12,3.57-18.94v-69.48c0-5.35-1.27-10.38-3.77-15.13-2.47-4.76-6.19-9.31-11.23-13.77l44.23-9.59v107.98ZM1336.98,478.63c0-4.23,1.82-7.86,5.54-10.82,3.72-3.01,8.19-4.47,13.4-4.47s9.81,1.46,13.58,4.47c3.67,2.96,5.54,6.59,5.54,10.82s-1.87,7.75-5.54,10.71c-3.77,2.96-8.26,4.46-13.58,4.46s-9.69-1.5-13.4-4.46c-3.72-2.96-5.54-6.53-5.54-10.71Z"/>
        <path class="cls-2" d="M1528.97,617.35c0,6.91,1.17,13.25,3.62,19.09,2.45,5.78,5.87,10.62,10.28,14.43h-21.77c-5.87,0-10.11-1.27-12.73-3.81-2.65-2.48-4.24-6.96-4.89-13.35-6.59,6.82-13.88,11.95-21.99,15.38-8.09,3.38-17.02,5.12-26.76,5.12-15.97,0-28.9-3.85-38.79-11.61-9.88-7.71-14.8-17.77-14.8-30.18,0-10.2,4.09-18.71,12.26-25.43,8.14-6.73,21.59-12.6,40.34-17.58,3.19-.9,7.71-2.02,13.65-3.43,20.87-5.08,31.25-12.22,31.25-21.44,0-5.5-2.6-10.01-7.76-13.53-5.12-3.48-11.76-5.22-19.84-5.22-9.11,0-18.12,2.25-27.21,6.76-9.09,4.51-18.3,11.43-27.68,20.78l.18-43.81c1.87,1.32,3.87,2.35,5.92,3.01,2.17.66,4.42.99,6.86.99,3.02,0,9.46-.94,19.37-2.86,9.93-1.88,18.4-2.87,25.39-2.87,19.74,0,33.87,4.14,42.33,12.32,8.49,8.22,12.78,22.1,12.78,41.6v55.66ZM1501.31,574.85c-6.76,3.19-15.5,6.15-26.13,8.79-10.63,2.68-17.25,4.47-19.79,5.31-9.64,3.4-16.13,6.83-19.47,10.35-3.32,3.48-5.02,8.14-5.02,13.92,0,6.48,2.6,11.66,7.71,15.61,5.07,3.95,11.81,5.93,20.12,5.93,13.53,0,23.96-3.62,31.4-10.91,7.44-7.29,11.18-17.58,11.18-30.99v-18Z"/>
        <path class="cls-2" d="M1602.3,617.35c0,7.01,1.17,13.4,3.47,19.13,2.37,5.78,5.74,10.58,10.16,14.39h-56.56c4.37-3.9,7.66-8.74,10.11-14.58,2.37-5.83,3.57-12.12,3.57-18.94v-115.27c0-5.87-1.25-11.47-3.74-16.77-2.55-5.32-6.39-10.68-11.76-15.99l44.75-9.59v157.62Z"/>
      </g>
      <rect class="cls-2" x="1.81" y="576.33" width="267.31" height="6.39"/>
      <rect class="cls-2" x="1656.58" y="576.33" width="267.3" height="6.39"/>
      <g>
        <path class="cls-1" d="M1617.83,83.94v59.24h-40.66c-19.72,0-36.14,1.4-49.32,4.31-13.08,2.88-24.94,7.6-35.32,14.12-19.79,12.39-29.8,27.68-29.8,45.87,0,17.09,9.53,31.77,28.6,44.07,11.21,7.25,23.64,12.29,37.32,15.24,13.7,2.95,31.4,4.43,53.24,4.43h35.94v59.24h-54.24c-48.82,0-88.86-5.64-120.08-17.15-39.34-14.5-66.94-35.52-83.14-62.87-8.16-13.83-12.38-27.97-12.38-42.41,0-18.92,6.91-37.28,20.64-55.11,10.51-13.6,24.11-25.56,41.26-35.74,24.91-14.84,54.66-24.45,89.08-29.1,20.24-2.75,43.18-4.12,68.74-4.12h50.12Z"/>
        <path class="cls-1" d="M1730.5,0v142.41l.82,2.85c36.89,4.76,76.73-4.34,95.17-37.58,9.58-13.94,11.83-23.74,11.91-23.74h81.54c14.38,42.25-22.01,79.39-58.51,93.99,58.71,38.73,66.27,80.91,63.85,152.52h-96.9c1.5-57.38-7.56-124.18-98.07-118.74l.17,118.74h-101.61V0h101.61Z"/>
        <path class="cls-1" d="M407.53,332.77h185.98l14.83-.44c61.83-1.82,103.24-50.38,103.71-103.36.55-59.06-53.64-95.54-115.97-95.54h-110.37c-16.85,0-28.15-14.34-29.13-28.67-1.07-16.5,12.28-33.88,31.7-33.88h206.42V.54h-210.02c-80.2,0-114.42,44.74-115.97,98.58-1.52,52.57,41.38,104.23,103.21,104.23h114.44l12.78.86c15.3,1.05,25.14,13.02,26.06,26.05,1.12,16.51-15.33,31.71-34.74,31.71l-228.16.91L363.85.07,223.54.02c-43.93-.67-66.84,26.05-83.22,63.32L0,331.91v.42l111.85-.91c36.69-76.09,73.36-152.16,110.05-228.22,13.98-24.27,21.82-27.89,47.22-25.12l-.07,254.69h138.48Z"/>
        <path class="cls-1" d="M882.77,0c27.11.87,48.32-1.61,65.9,3.61,37.42,10.43,57.61,27.02,67.47,47.37,5.52,11.16,7.34,23.05,7.34,35.54,0,22.8-6.76,42.32-22.02,56.93-7.06,6.74-14.03,11.92-22.44,15.52-8.39,3.61-21.44,8.11-36.52,11,61.03,34.02,77.03,71.75,77.03,159.63h-105.86c-.18-89.25-35.62-124.21-110.53-123.34v124.18h-79.3V0h158.92ZM803.15,128.25h74.68c17.77,0,28.38-3.37,33.7-8.86,4.34-4.44,6.49-10.56,6.49-16.47,0-8.04-3.02-13.97-8.91-17.81-5.99-3.84-15.95-6.69-28.8-6.69l-77.15.06v49.77h0Z"/>
        <path class="cls-1" d="M1180.08,155.19c30.83,0,55.96,23.35,55.96,52.01s-25.14,51.99-55.96,51.99-55.96-23.35-55.96-51.99,25.14-52.01,55.96-52.01h0Z"/>
        <path class="cls-1" d="M1180.08,83.94c89.58,0,162.62,55.38,162.62,123.26s-73.03,123.25-162.62,123.25-162.62-55.37-162.62-123.25,73.03-123.26,162.62-123.26h0ZM1180.08,137.76c41.16,0,74.73,31.19,74.73,69.44s-33.57,69.43-74.73,69.43-74.71-31.19-74.71-69.43,33.55-69.44,74.71-69.44h0Z"/>
        <path class="cls-1" d="M1880.76,15.41c11.86,0,21.57,9.7,21.57,21.55s-9.71,21.58-21.57,21.58-21.57-9.68-21.57-21.58,9.68-21.55,21.57-21.55h0ZM1880.76,10.3c14.68,0,26.66,11.98,26.66,26.67s-11.98,26.69-26.66,26.69-26.71-11.99-26.71-26.69,12.01-26.67,26.71-26.67h0Z"/>
        <path class="cls-1" d="M1869.88,50.61v-27.28h11.61c2.92,0,5.02.26,6.34.75,1.32.49,2.37,1.37,3.17,2.62.8,1.25,1.2,2.68,1.2,4.28,0,2.06-.6,3.76-1.82,5.09-1.2,1.32-3,2.17-5.37,2.51,1.17.7,2.17,1.47,2.95,2.3.75.84,1.8,2.31,3.15,4.43l3.29,5.3h-6.56l-3.99-5.91c-1.42-2.12-2.37-3.47-2.89-4.01-.52-.56-1.07-.94-1.65-1.15-.62-.21-1.52-.31-2.77-.31h-1.12v11.38h-5.52ZM1875.4,34.88h4.04c2.67,0,4.32-.13,4.99-.34.65-.22,1.15-.6,1.52-1.16.37-.55.57-1.22.57-2.05,0-.91-.25-1.66-.75-2.22-.5-.56-1.17-.91-2.1-1.06-.42-.06-1.77-.11-3.99-.11h-4.29v6.94h0Z"/>
      </g>
    </g>
  </g>
</svg>