<?xml version="1.0" encoding="UTF-8"?>
<svg id="_圖層_2" data-name="圖層 2" xmlns="http://www.w3.org/2000/svg" viewBox="0 0 78.39 105.81">
  <defs>
    <style>
      .cls-1 {
        fill: #003979;
      }

      .cls-2 {
        fill: #fff;
      }
    </style>
  </defs>
  <g id="_圖層_1-2" data-name="圖層 1">
    <g>
      <path class="cls-1" d="M76.69,48.66c0,4.47.26,8.96-.06,13.42-.52,7.27-3.5,13.8-7.94,19.74-7.16,9.58-16.71,16.59-27.68,22.04-1.15.57-2.35.62-3.51.04-11.66-5.79-21.74-13.27-28.95-23.74-4.64-6.73-7.08-14.1-7.04-22.14.03-7.05,0-17.08,0-24.13,0-2.21,7.92-7.07,10.15-7.81,7.5-2.5,47.52-2.57,54.94-.08,2.53.85,10.3,5.63,10.3,8.12,0,3.85,0,10.7,0,14.55h-.2Z"/>
      <path class="cls-2" d="M39.18,105.81c-.8,0-1.59-.19-2.36-.57-13.12-6.52-22.78-14.45-29.52-24.23C2.42,73.92-.04,66.18,0,58.01c.02-4.54.01-10.31.01-15.72v-8.4c0-3.53,9.42-8.66,11.17-9.24,7.9-2.63,48.12-2.69,55.89-.08,2.16.72,11.31,5.71,11.32,9.54v16.05h-.19c0,.88.02,1.76.04,2.63.06,3.07.11,6.25-.11,9.39-.5,7.08-3.2,13.79-8.24,20.53-6.78,9.07-16.01,16.42-28.22,22.48-.82.41-1.66.61-2.49.61ZM39.71,25.68c-11.91,0-23.96.61-27.58,1.81-2.28.76-8.72,5.02-9.13,6.49v8.31c.01,5.42.02,11.2,0,15.74-.04,7.55,2.24,14.71,6.78,21.29,6.44,9.35,15.73,16.96,28.39,23.25.72.36,1.41.34,2.18-.04,11.78-5.85,20.66-12.91,27.15-21.59,4.68-6.26,7.18-12.46,7.64-18.94.21-3.01.16-6.12.11-9.13-.03-1.4-.05-2.79-.05-4.19v-1.5h.2v-13.05c-.23-1.43-6.44-5.75-9.28-6.7-3.45-1.15-14.86-1.73-26.41-1.73Z"/>
      <path class="cls-2" d="M49.49,45.54c.47.34.49.52.26,1.02l-6.58,11.56h8.11c.29,0,.68.51.53.82l-22.25,23.78c-.53.22-.99-.2-.82-.75l8.11-16.21h-7.67c-.31,0-.54-.66-.34-.93,3.56-5.87,6.96-11.83,10.5-17.71.32-.53.62-1.16,1.08-1.58h9.09Z"/>
      <path class="cls-1" d="M60.45,40.75c-2.48,0-4.5-2.02-4.5-4.5V13.78c0-2.21-3.96-4.78-9.07-4.78h-13.24c-5.11,0-9.08,2.57-9.08,4.78v22.47c0,2.48-2.02,4.5-4.5,4.5s-4.5-2.02-4.5-4.5V13.78C15.57,6.06,23.51,0,33.64,0h13.24c10.13,0,18.07,6.06,18.07,13.78v22.47c0,2.48-2.02,4.5-4.5,4.5Z"/>
    </g>
  </g>
</svg>