<?xml version="1.0" encoding="UTF-8"?>
<svg id="_圖層_2" data-name="圖層 2" xmlns="http://www.w3.org/2000/svg" viewBox="0 0 144.55 90.98">
  <defs>
    <style>
      .cls-1 {
        fill: #003979;
      }

      .cls-2 {
        stroke: #003979;
        stroke-linecap: round;
        stroke-linejoin: round;
        stroke-width: 1.5px;
      }

      .cls-2, .cls-3 {
        fill: #fff;
      }
    </style>
  </defs>
  <g id="_圖層_1-2" data-name="圖層 1">
    <g>
      <rect class="cls-3" x="2.63" y="2.63" width="121.35" height="46.21" rx="1.56" ry="1.56"/>
      <path class="cls-1" d="M118.52,51.46H8.09c-4.46,0-8.09-3.62-8.09-8.08V8.09C0,3.63,3.63,0,8.09,0h110.43c4.46,0,8.09,3.63,8.09,8.09v35.29c0,4.46-3.63,8.08-8.09,8.08ZM8.09,5.25c-1.56,0-2.83,1.27-2.83,2.83v35.29c0,1.56,1.27,2.83,2.83,2.83h110.43c1.56,0,2.83-1.27,2.83-2.83V8.09c0-1.56-1.27-2.83-2.83-2.83H8.09Z"/>
      <rect class="cls-3" x="12.97" y="13.17" width="18.74" height="23.8"/>
      <path class="cls-1" d="M31.71,39.6H12.97c-1.45,0-2.63-1.18-2.63-2.63V13.17c0-1.45,1.18-2.63,2.63-2.63h18.74c1.45,0,2.63,1.18,2.63,2.63v23.8c0,1.45-1.18,2.63-2.63,2.63ZM15.6,34.35h13.48V15.8h-13.48v18.55Z"/>
      <rect class="cls-3" x="39.82" y="13.17" width="18.74" height="23.8"/>
      <path class="cls-1" d="M58.55,39.6h-18.73c-1.45,0-2.63-1.18-2.63-2.63V13.17c0-1.45,1.18-2.63,2.63-2.63h18.73c1.45,0,2.63,1.18,2.63,2.63v23.8c0,1.45-1.18,2.63-2.63,2.63ZM42.44,34.35h13.48V15.8h-13.48v18.55Z"/>
      <rect class="cls-3" x="66.66" y="13.17" width="18.74" height="23.8"/>
      <path class="cls-1" d="M85.4,39.6h-18.73c-1.45,0-2.63-1.18-2.63-2.63V13.17c0-1.45,1.18-2.63,2.63-2.63h18.73c1.45,0,2.63,1.18,2.63,2.63v23.8c0,1.45-1.18,2.63-2.63,2.63ZM69.29,34.35h13.48V15.8h-13.48v18.55Z"/>
      <rect class="cls-3" x="93.51" y="13.17" width="18.74" height="23.8"/>
      <path class="cls-1" d="M112.25,39.6h-18.73c-1.45,0-2.63-1.18-2.63-2.63V13.17c0-1.45,1.18-2.63,2.63-2.63h18.73c1.45,0,2.63,1.18,2.63,2.63v23.8c0,1.45-1.18,2.63-2.63,2.63ZM96.14,34.35h13.48V15.8h-13.48v18.55Z"/>
      <rect class="cls-3" x="8.3" y="48.84" width="111.15" height="13"/>
      <path class="cls-1" d="M119.45,64.46H8.3c-1.45,0-2.63-1.18-2.63-2.63v-13c0-1.45,1.18-2.63,2.63-2.63h111.15c1.45,0,2.63,1.18,2.63,2.63v13c0,1.45-1.18,2.63-2.63,2.63ZM10.92,59.21h105.9v-7.75H10.92v7.75Z"/>
      <line class="cls-2" x1="20.2" y1="48.84" x2="20.2" y2="55.86"/>
      <line class="cls-2" x1="32.46" y1="48.84" x2="32.46" y2="55.86"/>
      <line class="cls-2" x1="44.72" y1="48.84" x2="44.72" y2="55.86"/>
      <line class="cls-2" x1="56.99" y1="48.84" x2="56.99" y2="55.86"/>
      <line class="cls-2" x1="69.25" y1="48.84" x2="69.25" y2="55.86"/>
      <line class="cls-2" x1="81.51" y1="48.84" x2="81.51" y2="55.86"/>
      <line class="cls-2" x1="93.77" y1="48.84" x2="93.77" y2="55.86"/>
      <line class="cls-2" x1="106.04" y1="48.84" x2="106.04" y2="55.86"/>
      <path class="cls-1" d="M142.65,45.07c0,3.55.19,7.11-.04,10.65-.38,5.77-2.58,10.95-5.86,15.66-5.29,7.6-12.34,13.16-20.44,17.48-.85.45-1.73.49-2.59.03-8.61-4.6-16.05-10.53-21.37-18.84-3.42-5.34-5.22-11.19-5.2-17.57.02-5.59,0-11.18,0-16.77,0-1.76.51-2.47,2.16-3.05,5.54-1.98,10.47-4.9,14.5-9.25.59-.64,1.3-.94,2.17-.94,6,0,12,0,18,0,.87,0,1.58.31,2.17.94,3.99,4.29,8.87,7.2,14.34,9.18,1.87.67,2.31,1.32,2.32,3.3,0,3.06,0,6.11,0,9.17h-.15Z"/>
      <path class="cls-3" d="M114.97,90.98c-.71,0-1.41-.18-2.07-.53-9.79-5.23-16.99-11.59-22.02-19.44-3.66-5.71-5.5-11.94-5.47-18.52.02-3.59.01-7.18,0-10.77v-5.99c0-2.5.96-3.86,3.31-4.7,5.7-2.04,10.22-4.91,13.81-8.79.93-1,2.09-1.5,3.45-1.5,6,0,12,0,17.99,0,1.36,0,2.52.5,3.45,1.49,3.58,3.85,8.05,6.71,13.66,8.73,2.56.92,3.47,2.22,3.47,4.94l-.14,10.92c0,.51.02,1.02.02,1.53.04,2.45.08,4.98-.08,7.49-.38,5.7-2.4,11.12-6.17,16.54-5.06,7.27-11.94,13.17-21.05,18.03-.7.38-1.44.56-2.17.56ZM105.98,24.24c-.39,0-.63.1-.89.38-3.98,4.3-8.95,7.47-15.19,9.7-.96.34-.99.4-1,1.41v5.99c0,3.6.01,7.19,0,10.79-.03,5.89,1.63,11.48,4.92,16.62,4.7,7.33,11.48,13.3,20.72,18.24.26.14.52.18.94-.03,8.6-4.59,15.09-10.13,19.82-16.94,3.4-4.89,5.22-9.73,5.55-14.78.16-2.36.11-4.82.08-7.19-.02-1.11-.04-2.22-.04-3.33l.15-9.17q0-1.23-1.16-1.65c-6.15-2.22-11.06-5.37-15.03-9.63-.26-.28-.5-.38-.89-.38-6,0-12,0-18,0Z"/>
      <polygon class="cls-3" points="111.24 68.58 99.49 59.06 103.86 53.68 110.79 59.3 127.26 43.13 132.11 48.07 111.24 68.58"/>
    </g>
  </g>
</svg>